<?xml version="1.0" encoding="utf-8"?>
<!-- Generator: Adobe Illustrator 26.3.1, SVG Export Plug-In . SVG Version: 6.00 Build 0)  -->
<svg version="1.1" id="Layer_1" xmlns="http://www.w3.org/2000/svg" xmlns:xlink="http://www.w3.org/1999/xlink" x="0px" y="0px"
	 viewBox="0 0 39 39" style="enable-background:new 0 0 39 39;" xml:space="preserve">
<style type="text/css">
	.st0{fill:#FFFFFF;}
</style>
<path class="st0" d="M38.1,17L23.9,2.8c-0.6-0.6-1.4-0.9-2.3-0.9c-0.9,0-1.7,0.3-2.3,0.9l-2.4,2.4C16.3,5.8,16,6.6,16,7.5
	c0,0.9,0.3,1.7,0.9,2.3l4.6,4.6H3.2c-1.8,0-3.2,1.4-3.2,3.2V21c0,1.8,1.4,3.2,3.2,3.2h18.3l-4.6,4.6C16.3,29.4,16,30.2,16,31
	c0,0.8,0.3,1.7,0.9,2.3l2.4,2.4c0.6,0.6,1.4,0.9,2.2,0.9c0.8,0,1.6-0.3,2.3-0.9l14.2-14.2C39.3,20.3,39.3,18.2,38.1,17z"/>
</svg>
