<?xml version="1.0" encoding="utf-8"?>
<!-- Generator: Adobe Illustrator 26.0.2, SVG Export Plug-In . SVG Version: 6.00 Build 0)  -->
<svg version="1.1" id="Livello_1" xmlns="http://www.w3.org/2000/svg" xmlns:xlink="http://www.w3.org/1999/xlink" x="0px" y="0px"
	 viewBox="0 0 39 39" style="enable-background:new 0 0 39 39;" xml:space="preserve">
<style type="text/css">
	.st0{stroke:#000000;stroke-width:4;stroke-linejoin:round;}
</style>
<path class="st0" d="M7.3,34.5c0,1.1,0.9,2,2,2h25.2c1.1,0,2-0.9,2-2V9.3c0-1.1-0.9-2-2-2h-4.3c-0.5,0-1,0.2-1.4,0.6
	c-0.4,0.4-0.6,0.9-0.6,1.4l0,13L8.5,2.6c-0.8-0.8-2-0.8-2.8,0L2.6,5.7c-0.8,0.8-0.8,2,0,2.8l19.7,19.7h-13c-0.5,0-1,0.2-1.4,0.6
	c-0.4,0.4-0.6,0.9-0.6,1.4L7.3,34.5z"/>
</svg>
