<?xml version="1.0" encoding="utf-8"?>
<!-- Generator: Adobe Illustrator 26.3.1, SVG Export Plug-In . SVG Version: 6.00 Build 0)  -->
<svg version="1.1" id="Layer_2_00000176022877488155252420000004202335077454200979_"
	 xmlns="http://www.w3.org/2000/svg" xmlns:xlink="http://www.w3.org/1999/xlink" x="0px" y="0px" viewBox="0 0 246.7 246.7"
	 style="enable-background:new 0 0 246.7 246.7;" xml:space="preserve">
<style type="text/css">
	.st0{fill:#1C1C38;}
	.st1{fill:#0F0F20;}
	.st2{fill:none;}
</style>
<g>
	<rect x="82.2" y="61.7" class="st0" width="20.6" height="20.6"/>
	<rect x="102.8" y="41.1" class="st0" width="20.6" height="20.6"/>
	<rect x="82.2" y="41.1" class="st1" width="20.6" height="20.6"/>
	<rect x="82.2" y="20.6" class="st0" width="20.6" height="20.6"/>
	<rect x="123.3" y="61.7" class="st0" width="20.6" height="20.6"/>
	<rect x="123.3" y="20.6" class="st0" width="20.6" height="20.6"/>
	<rect y="61.7" class="st0" width="20.6" height="20.6"/>
	<rect x="20.6" y="41.1" class="st0" width="20.6" height="20.6"/>
	<rect y="41.1" class="st1" width="20.6" height="20.6"/>
	<rect class="st1" width="20.6" height="20.6"/>
	<rect x="41.1" class="st1" width="20.6" height="20.6"/>
	<rect x="82.2" class="st1" width="20.6" height="20.6"/>
	<rect x="123.3" class="st1" width="20.6" height="20.6"/>
	<rect x="164.4" class="st1" width="20.6" height="20.6"/>
	<rect x="205.6" class="st1" width="20.6" height="20.6"/>
	<rect y="20.6" class="st0" width="20.6" height="20.6"/>
	<rect x="41.1" y="61.7" class="st0" width="20.6" height="20.6"/>
	<rect x="41.1" y="20.6" class="st0" width="20.6" height="20.6"/>
	<rect x="164.4" y="61.7" class="st0" width="20.6" height="20.6"/>
	<rect x="185" y="41.1" class="st0" width="20.6" height="20.6"/>
	<rect x="164.4" y="41.1" class="st1" width="20.6" height="20.6"/>
	<rect x="164.4" y="20.6" class="st0" width="20.6" height="20.6"/>
	<rect x="205.6" y="61.7" class="st0" width="20.6" height="20.6"/>
	<rect x="205.6" y="20.6" class="st0" width="20.6" height="20.6"/>
	<rect x="82.2" y="143.9" class="st0" width="20.6" height="20.6"/>
	<rect x="102.8" y="123.3" class="st0" width="20.6" height="20.6"/>
	<rect x="82.2" y="123.3" class="st1" width="20.6" height="20.6"/>
	<rect x="82.2" y="102.8" class="st0" width="20.6" height="20.6"/>
	<rect x="123.3" y="143.9" class="st0" width="20.6" height="20.6"/>
	<rect x="123.3" y="102.8" class="st0" width="20.6" height="20.6"/>
	<rect y="143.9" class="st0" width="20.6" height="20.6"/>
	<rect x="20.6" y="123.3" class="st0" width="20.6" height="20.6"/>
	<rect y="123.3" class="st1" width="20.6" height="20.6"/>
	<rect y="82.2" class="st1" width="20.6" height="20.6"/>
	<rect x="41.1" y="82.2" class="st1" width="20.6" height="20.6"/>
	<rect x="82.2" y="82.2" class="st1" width="20.6" height="20.6"/>
	<rect x="123.3" y="82.2" class="st1" width="20.6" height="20.6"/>
	<rect x="164.4" y="82.2" class="st1" width="20.6" height="20.6"/>
	<rect x="205.6" y="82.2" class="st1" width="20.6" height="20.6"/>
	<rect y="102.8" class="st0" width="20.6" height="20.6"/>
	<rect x="41.1" y="143.9" class="st0" width="20.6" height="20.6"/>
	<rect x="41.1" y="102.8" class="st0" width="20.6" height="20.6"/>
	<rect x="164.4" y="143.9" class="st0" width="20.6" height="20.6"/>
	<rect x="185" y="123.3" class="st0" width="20.6" height="20.6"/>
	<rect x="164.4" y="123.3" class="st1" width="20.6" height="20.6"/>
	<rect x="164.4" y="102.8" class="st0" width="20.6" height="20.6"/>
	<rect x="205.6" y="143.9" class="st0" width="20.6" height="20.6"/>
	<rect x="205.6" y="102.8" class="st0" width="20.6" height="20.6"/>
	<rect x="82.2" y="226.1" class="st0" width="20.6" height="20.6"/>
	<rect x="102.8" y="205.6" class="st0" width="20.6" height="20.6"/>
	<rect x="82.2" y="205.6" class="st1" width="20.6" height="20.6"/>
	<rect x="82.2" y="185" class="st0" width="20.6" height="20.6"/>
	<rect x="123.3" y="226.1" class="st0" width="20.6" height="20.6"/>
	<rect x="123.3" y="185" class="st0" width="20.6" height="20.6"/>
	<rect y="226.1" class="st0" width="20.6" height="20.6"/>
	<rect x="20.6" y="205.6" class="st0" width="20.6" height="20.6"/>
	<rect y="205.6" class="st1" width="20.6" height="20.6"/>
	<rect y="164.4" class="st1" width="20.6" height="20.6"/>
	<rect x="41.1" y="164.4" class="st1" width="20.6" height="20.6"/>
	<rect x="82.2" y="164.4" class="st1" width="20.6" height="20.6"/>
	<rect x="123.3" y="164.4" class="st1" width="20.6" height="20.6"/>
	<rect x="164.4" y="164.4" class="st1" width="20.6" height="20.6"/>
	<rect x="205.6" y="164.4" class="st1" width="20.6" height="20.6"/>
	<rect y="185" class="st0" width="20.6" height="20.6"/>
	<rect x="41.1" y="226.1" class="st0" width="20.6" height="20.6"/>
	<rect x="41.1" y="185" class="st0" width="20.6" height="20.6"/>
	<rect x="164.4" y="226.1" class="st0" width="20.6" height="20.6"/>
	<rect x="185" y="205.6" class="st0" width="20.6" height="20.6"/>
	<rect x="164.4" y="205.6" class="st1" width="20.6" height="20.6"/>
	<rect x="164.4" y="185" class="st0" width="20.6" height="20.6"/>
	<rect x="205.6" y="226.1" class="st0" width="20.6" height="20.6"/>
	<rect x="205.6" y="185" class="st0" width="20.6" height="20.6"/>
	<rect x="226.1" class="st2" width="20.6" height="20.6"/>
	<rect x="226.1" y="61.7" class="st2" width="20.6" height="20.6"/>
	<rect x="226.1" y="20.6" class="st2" width="20.6" height="20.6"/>
	<rect x="226.1" y="82.2" class="st2" width="20.6" height="20.6"/>
	<rect x="226.1" y="143.9" class="st2" width="20.6" height="20.6"/>
	<rect x="226.1" y="102.8" class="st2" width="20.6" height="20.6"/>
	<rect x="226.1" y="164.4" class="st2" width="20.6" height="20.6"/>
	<rect x="226.1" y="226.1" class="st2" width="20.6" height="20.6"/>
	<rect x="226.1" y="185" class="st2" width="20.6" height="20.6"/>
</g>
</svg>
