<svg width="246" height="245" viewBox="0 0 246 245" fill="none" xmlns="http://www.w3.org/2000/svg">
<path d="M244.835 159.706V186.053C244.835 218.222 218.565 244.199 186.397 243.837L168.458 243.635C160.249 243.543 152.402 240.241 146.597 234.436C133.938 221.777 113.415 221.776 100.755 234.433L100.142 235.047C94.0878 241.1 85.8772 244.5 77.3162 244.5H58.9524C26.855 244.5 0.834961 218.48 0.834961 186.382V159.706C0.834961 142.342 14.9117 128.265 32.2762 128.265H58.9524C62.1364 128.265 64.7175 125.684 64.7175 122.5C64.7175 119.316 62.1364 116.735 58.9524 116.735H56.7716C54.9294 116.735 53.1627 116.003 51.8601 114.701L2.86937 65.7098C1.56676 64.4072 0.834961 62.6405 0.834961 60.7983C0.834961 56.9622 3.94475 53.8524 7.78086 53.8524H27.0112C42.0202 53.8524 54.1874 41.6852 54.1874 26.6762C54.1874 12.2195 65.9069 0.5 80.3636 0.5H165.306C179.763 0.5 191.483 12.2195 191.483 26.6762C191.483 41.6852 203.65 53.8524 218.659 53.8524H237.889C241.725 53.8524 244.835 56.9622 244.835 60.7983C244.835 62.6405 244.103 64.4072 242.801 65.7098L193.81 114.701C192.507 116.003 190.741 116.735 188.898 116.735H186.717C183.534 116.735 180.952 119.316 180.952 122.5C180.952 125.684 183.534 128.265 186.717 128.265H213.394C230.758 128.265 244.835 142.342 244.835 159.706Z" stroke="black" stroke-width="0.5px"/>
</svg>
