<svg width="246" height="245" viewBox="0 0 246 245" fill="none" xmlns="http://www.w3.org/2000/svg">
<path d="M217.938 26.6624L231.751 40.4755C240.128 48.8531 244.835 60.2155 244.835 72.0632V85.2937C244.835 102.658 230.758 116.735 213.394 116.735H186.717C183.534 116.735 180.952 119.316 180.952 122.5C180.952 125.684 183.534 128.265 186.717 128.265H188.898C190.741 128.265 192.507 128.997 193.81 130.299L231.751 168.241C240.128 176.618 244.835 187.981 244.835 199.828V218.324C244.835 232.781 233.115 244.5 218.659 244.5C204.202 244.5 192.483 232.781 192.483 218.324V186.383C192.483 183.199 189.901 180.617 186.717 180.617C183.534 180.617 180.952 183.199 180.952 186.383V213.059C180.952 230.423 166.876 244.5 149.511 244.5H96.1588C78.7942 244.5 64.7175 230.423 64.7175 213.059V186.383C64.7175 183.199 62.1364 180.617 58.9524 180.617C55.7685 180.617 53.1874 183.199 53.1874 186.383V218.324C53.1874 232.781 41.4679 244.5 27.0112 244.5C12.5545 244.5 0.834961 232.781 0.834961 218.324V199.828C0.834961 187.981 5.54144 176.618 13.919 168.241L51.8601 130.299C53.1627 128.997 54.9294 128.265 56.7716 128.265H58.9524C62.1364 128.265 64.7175 125.684 64.7175 122.5C64.7175 119.316 62.1364 116.735 58.9524 116.735H32.2762C14.9117 116.735 0.834961 102.658 0.834961 85.2937V72.0632C0.834961 60.2155 5.54144 48.853 13.919 40.4755L27.7321 26.6624C44.4836 9.91089 67.2035 0.5 90.8937 0.5H154.776C178.466 0.5 201.186 9.91088 217.938 26.6624Z" stroke="black" stroke-width="0.5px"/>
</svg>
