<svg width="246" height="245" viewBox="0 0 246 245" fill="none" xmlns="http://www.w3.org/2000/svg">
<path d="M244.484 53.3491V53.3524V199.906C244.484 224.535 224.519 244.5 199.891 244.5C188.053 244.5 176.7 239.793 168.336 231.416L141.483 204.525C133.116 196.147 128.417 184.79 128.417 172.95V133.023C128.417 129.843 125.839 127.265 122.66 127.265C119.48 127.265 116.902 129.843 116.902 133.023V172.95C116.902 184.79 112.203 196.147 103.837 204.525L76.9839 231.416C68.6191 239.793 57.2668 244.5 45.4287 244.5C20.8003 244.5 0.834961 224.535 0.834961 199.906V53.3541V53.3524L0.891006 44.823C1.05213 20.2971 20.9797 0.5 45.5061 0.5C57.2994 0.5 68.613 5.16927 76.9735 13.487L113.69 50.016C116.16 52.4731 119.502 53.8524 122.986 53.8524C126.5 53.8524 129.868 52.4493 132.343 49.9547L168.326 13.681C176.695 5.24501 188.085 0.5 199.968 0.5C224.698 0.5 244.699 20.6335 244.537 45.3627L244.484 53.3491Z" stroke="black" stroke-width="0.5px"/>
</svg>
