<svg width="245" height="245" viewBox="0 0 245 245" fill="none" xmlns="http://www.w3.org/2000/svg">
<path d="M26.6762 192.148H58.6175C61.8014 192.148 64.3825 189.566 64.3825 186.383C64.3825 183.199 61.8014 180.617 58.6175 180.617H31.9412C14.5767 180.617 0.5 166.541 0.5 149.176V135.946C0.5 124.098 5.20648 112.736 13.5841 104.358L51.5251 66.4169C52.8277 65.1143 54.5945 64.3825 56.4366 64.3825H58.6175C61.8014 64.3825 64.3825 61.8014 64.3825 58.6175C64.3825 55.4335 61.8014 52.8524 58.6175 52.8524H26.6762C12.2195 52.8524 0.5 41.1329 0.5 26.6762C0.5 12.2195 12.2195 0.5 26.6762 0.5H218.324C232.781 0.5 244.5 12.2195 244.5 26.6762C244.5 41.1329 232.781 52.8524 218.324 52.8524H186.383C183.199 52.8524 180.617 55.4335 180.617 58.6175C180.617 61.8014 183.199 64.3825 186.383 64.3825H188.563C190.406 64.3825 192.172 65.1143 193.475 66.4169L231.416 104.358C239.794 112.736 244.5 124.098 244.5 135.946V149.176C244.5 166.541 230.423 180.617 213.059 180.617H186.383C183.199 180.617 180.617 183.199 180.617 186.383C180.617 189.566 183.199 192.148 186.383 192.148H218.324C232.781 192.148 244.5 203.867 244.5 218.324C244.5 232.781 232.781 244.5 218.324 244.5H168.091C159.52 244.5 151.332 240.953 145.471 234.7C133.104 221.509 112.274 221.174 99.4889 233.959L98.447 235.001C92.3647 241.083 84.1152 244.5 75.5135 244.5H26.6762C12.2195 244.5 0.5 232.781 0.5 218.324C0.5 203.867 12.2195 192.148 26.6762 192.148Z" stroke="black" stroke-width="0.5px"/>
</svg>
