<svg width="246" height="245" viewBox="0 0 246 245" fill="none" xmlns="http://www.w3.org/2000/svg">
<path d="M27.0112 192.148H58.9524C62.1364 192.148 64.7175 189.566 64.7175 186.383C64.7175 183.199 62.1364 180.617 58.9524 180.617H56.7716C54.9294 180.617 53.1627 179.886 51.8601 178.583L4.41147 131.134C2.12147 128.844 0.834961 125.739 0.834961 122.5C0.834961 119.261 2.12147 116.156 4.41146 113.866L51.8601 66.4169C53.1627 65.1143 54.9294 64.3825 56.7716 64.3825H58.9524C62.1364 64.3825 64.7175 61.8014 64.7175 58.6175C64.7175 55.4335 62.1364 52.8524 58.9524 52.8524H27.0112C12.5544 52.8524 0.834961 41.1329 0.834961 26.6762C0.834961 12.2195 12.5545 0.5 27.0112 0.5H218.659C233.115 0.5 244.835 12.2195 244.835 26.6762C244.835 41.1329 233.115 52.8524 218.659 52.8524H186.717C183.534 52.8524 180.952 55.4335 180.952 58.6175C180.952 61.8014 183.534 64.3825 186.717 64.3825H188.898C190.741 64.3825 192.507 65.1143 193.81 66.4169L241.258 113.866C243.548 116.156 244.835 119.261 244.835 122.5C244.835 125.739 243.548 128.844 241.258 131.134L193.81 178.583C192.507 179.886 190.741 180.617 188.898 180.617H186.717C183.534 180.617 180.952 183.199 180.952 186.383C180.952 189.566 183.534 192.148 186.717 192.148H218.659C233.115 192.148 244.835 203.867 244.835 218.324C244.835 232.781 233.115 244.5 218.659 244.5H27.0112C12.5544 244.5 0.834961 232.781 0.834961 218.324C0.834961 203.867 12.5545 192.148 27.0112 192.148Z" stroke="black" stroke-width="0.5px"/>
</svg>
