<svg width="246" height="245" viewBox="0 0 246 245" fill="none" xmlns="http://www.w3.org/2000/svg">
<path d="M244.562 63.5689L244.562 63.571L244.562 84.778C244.562 102.112 230.51 116.163 213.176 116.163L186.53 116.163C183.361 116.163 180.791 118.733 180.791 121.903C180.791 125.072 183.361 127.642 186.53 127.642L188.729 127.642C190.565 127.642 192.326 128.37 193.627 129.666L231.501 167.423C239.862 175.757 244.562 187.077 244.562 198.883C244.562 223.417 224.673 243.305 200.139 243.305L168.556 243.305C159.79 243.305 151.382 239.83 145.174 233.642C131.859 220.369 110.315 220.369 97.0002 233.642L96.153 234.487C89.7203 240.899 81.0078 244.5 71.9247 244.5L46.2571 244.5C21.2572 244.5 0.990694 224.233 0.990696 199.233C0.990697 187.203 5.77933 175.668 14.2992 167.175L51.9257 129.666C53.2261 128.37 54.9874 127.642 56.8237 127.642L59.022 127.642C62.1918 127.642 64.7613 125.072 64.7613 121.903C64.7613 118.733 62.1917 116.163 59.022 116.163L32.2715 116.163C14.9601 116.163 0.885038 102.189 0.844863 84.8805C0.831634 79.1796 0.829925 73.8155 0.850601 69.8961C0.860932 67.9359 0.876862 66.3394 0.899674 65.2436C0.911103 64.6946 0.924164 64.2763 0.938798 64.002C0.944153 63.9017 0.949448 63.8266 0.954285 63.7739C0.982911 63.711 0.993699 63.6553 0.99643 63.6422C1.00783 63.5871 1.01497 63.5225 1.02023 63.4649C1.03157 63.3411 1.04169 63.1611 1.05109 62.9351C1.07004 62.4798 1.08725 61.806 1.10298 60.9476C1.13446 59.2295 1.16022 56.7578 1.18125 53.7845C1.2233 47.8371 1.24651 39.8757 1.25878 31.9053C1.28544 14.5661 15.3311 0.49998 32.6686 0.499981L37.9885 0.499982C52.3734 0.499983 64.0347 12.1613 64.0347 26.5461C64.0347 41.4833 76.1436 53.5923 91.0808 53.5923L155.018 53.5923C169.955 53.5923 182.064 41.4833 182.064 26.5462C182.064 12.1613 193.726 0.499995 208.11 0.499997L213.381 0.499997C230.729 0.499999 244.772 14.6032 244.698 31.9514L244.562 63.5689Z" stroke="black" stroke-width="0.5px"/>
</svg>
