<svg width="246" height="245" viewBox="0 0 246 245" fill="none" xmlns="http://www.w3.org/2000/svg">
<path d="M58.9524 52.8524H27.0112C12.5545 52.8524 0.834961 41.1329 0.834961 26.6762C0.834961 12.2195 12.5544 0.5 27.0112 0.5H218.659C233.115 0.5 244.835 12.2195 244.835 26.6762C244.835 41.1329 233.115 52.8524 218.659 52.8524H186.717C183.534 52.8524 180.952 55.4335 180.952 58.6175C180.952 61.8014 183.534 64.3825 186.717 64.3825H188.898C190.741 64.3825 192.507 65.1143 193.81 66.4169L231.751 104.358C240.128 112.736 244.835 124.098 244.835 135.946C244.835 160.617 224.835 180.617 200.163 180.617H133.365C130.181 180.617 127.6 183.199 127.6 186.383C127.6 189.566 130.181 192.148 133.365 192.148H218.659C233.115 192.148 244.835 203.867 244.835 218.324C244.835 232.781 233.115 244.5 218.659 244.5H27.0112C12.5545 244.5 0.834961 232.781 0.834961 218.324C0.834961 203.867 12.5545 192.148 27.0112 192.148H112.305C115.489 192.148 118.07 189.566 118.07 186.383C118.07 183.199 115.489 180.617 112.305 180.617H45.5067C20.8352 180.617 0.834961 160.617 0.834961 135.946C0.834961 124.098 5.54144 112.736 13.919 104.358L51.8601 66.4169C53.1627 65.1143 54.9294 64.3825 56.7716 64.3825H58.9524C62.1364 64.3825 64.7175 61.8014 64.7175 58.6175C64.7175 55.4335 62.1364 52.8524 58.9524 52.8524Z" stroke="black" stroke-width="0.5px"/>
</svg>
