<svg width="246" height="245" viewBox="0 0 246 245" fill="none" xmlns="http://www.w3.org/2000/svg">
<path d="M231.751 204.525L218.305 217.97C201.318 234.957 178.28 244.5 154.257 244.5H91.4133C67.3904 244.5 44.3515 234.957 27.3647 217.97L13.919 204.525C5.54144 196.147 0.834961 184.785 0.834961 172.937V159.706C0.834961 142.342 14.9117 128.265 32.2762 128.265H58.9524C62.1364 128.265 64.7175 125.684 64.7175 122.5C64.7175 119.316 62.1364 116.735 58.9524 116.735H56.7716C54.9294 116.735 53.1627 116.003 51.8601 114.701L13.919 76.7594C5.54143 68.3819 0.834961 57.0194 0.834961 45.1718C0.834961 20.5002 20.8352 0.5 45.5067 0.5H58.9525C91.0499 0.5 117.07 26.5201 117.07 58.6175V111.97C117.07 115.154 119.651 117.735 122.835 117.735C126.019 117.735 128.6 115.154 128.6 111.97V58.6175C128.6 26.5201 154.62 0.5 186.718 0.5H200.163C224.835 0.5 244.835 20.5002 244.835 45.1718C244.835 57.0194 240.128 68.3819 231.751 76.7595L193.81 114.701C192.507 116.003 190.741 116.735 188.898 116.735H186.717C183.534 116.735 180.952 119.316 180.952 122.5C180.952 125.684 183.534 128.265 186.717 128.265H213.394C230.758 128.265 244.835 142.342 244.835 159.706V172.937C244.835 184.785 240.128 196.147 231.751 204.525Z" stroke="black" stroke-width="0.5px"/>
</svg>
