<svg width="1075" height="408" viewBox="0 0 1075 408" fill="none" xmlns="http://www.w3.org/2000/svg">
<path d="M636.296 33.4V47.8L639.896 47.8V46.568H637.704V34.632H639.896V33.4L636.296 33.4ZM643.989 34.85V45H645.417V40.982L647.167 40.982C649.645 40.982 651.381 40.436 651.381 37.916C651.381 35.41 649.645 34.85 647.167 34.85L643.989 34.85ZM647.279 36.054C648.777 36.054 649.925 36.264 649.925 37.916C649.925 39.582 648.777 39.736 647.279 39.736L645.417 39.736V36.054L647.279 36.054ZM658.797 45H660.393L658.041 40.492C659.287 40.156 660.057 39.386 660.057 37.776C660.057 35.34 658.293 34.85 655.829 34.85L652.609 34.85V45H654.037V40.73L655.829 40.73C656.095 40.73 656.333 40.73 656.599 40.716L658.797 45ZM655.941 36.054C657.439 36.054 658.587 36.236 658.587 37.804C658.587 39.372 657.439 39.526 655.941 39.526H654.037V36.054H655.941ZM662.66 39.918C662.66 37.3 664.102 35.872 665.964 35.872C667.812 35.872 669.268 37.3 669.268 39.918C669.268 42.536 667.812 43.978 665.964 43.978C664.102 43.978 662.66 42.536 662.66 39.918ZM670.724 39.918C670.724 36.852 668.876 34.668 665.964 34.668C663.052 34.668 661.204 36.852 661.204 39.918C661.204 42.984 663.052 45.182 665.964 45.182C668.876 45.182 670.724 42.984 670.724 39.918ZM679.628 41.766C679.306 43.068 678.34 43.978 676.702 43.978C674.812 43.978 673.468 42.48 673.468 39.904C673.468 37.272 674.868 35.872 676.66 35.872C678.27 35.872 679.278 36.81 679.572 38.084H680.958C680.51 35.914 678.83 34.668 676.73 34.668C673.874 34.668 672.012 36.768 672.012 39.904C672.012 42.984 673.706 45.182 676.618 45.182C678.816 45.182 680.566 44.006 681.014 41.766H679.628ZM682.38 45L689.268 45V43.768L683.808 43.768V40.394L688.946 40.394V39.162L683.808 39.162V36.082L689.268 36.082V34.85L682.38 34.85V45ZM690.266 37.44C690.266 39.12 691.652 39.904 693.052 40.212L694.312 40.478C695.586 40.772 696.496 41.192 696.496 42.27C696.496 43.278 695.642 43.978 694.13 43.978C692.548 43.978 691.596 43.25 691.33 41.85L689.93 41.85C690.196 43.866 691.708 45.182 694.102 45.182C696.118 45.182 697.966 44.118 697.966 42.144C697.966 40.1 696.104 39.512 694.55 39.176L693.374 38.91C692.422 38.7 691.722 38.252 691.722 37.356C691.722 36.222 693.094 35.872 693.878 35.872C694.886 35.872 696.062 36.278 696.398 37.44H697.784C697.378 35.494 695.768 34.668 693.934 34.668C692.296 34.668 690.266 35.494 690.266 37.44ZM699.092 37.44C699.092 39.12 700.478 39.904 701.878 40.212L703.138 40.478C704.412 40.772 705.322 41.192 705.322 42.27C705.322 43.278 704.468 43.978 702.956 43.978C701.374 43.978 700.422 43.25 700.156 41.85H698.756C699.022 43.866 700.534 45.182 702.928 45.182C704.944 45.182 706.792 44.118 706.792 42.144C706.792 40.1 704.93 39.512 703.376 39.176L702.2 38.91C701.248 38.7 700.548 38.252 700.548 37.356C700.548 36.222 701.92 35.872 702.704 35.872C703.712 35.872 704.888 36.278 705.224 37.44H706.61C706.204 35.494 704.594 34.668 702.76 34.668C701.122 34.668 699.092 35.494 699.092 37.44ZM710.199 33.4V34.632L712.391 34.632V46.568L710.199 46.568V47.8L713.799 47.8V33.4L710.199 33.4Z" fill="black"/>
<path d="M752.5 253.5L909 270.5" stroke="black" stroke-dasharray="4 4"/>
<path d="M694.5 313.5L823.5 356" stroke="black" stroke-dasharray="4 4"/>
<path d="M365 129.5V190" stroke="black"/>
<path d="M694 128.5V189" stroke="black"/>
<path d="M423 255H365.5L306.5 315" stroke="black"/>
<path d="M752 254H694.5L635.5 314" stroke="black"/>
<path d="M306.5 189H365" stroke="black"/>
<path d="M635.5 188H694" stroke="black"/>
<path d="M236 85.5H207.5L122 173.5M236 85.5V271L153.5 356.5M236 85.5L154 173.5M153.5 356.5H123L122 173.5M153.5 356.5L154 173.5M122 173.5H154" stroke="black"/>
<path d="M936.5 85.5H908L822.5 173.5M936.5 85.5V271L854 356.5M936.5 85.5L854.5 173.5M854 356.5H823.5L822.5 173.5M854 356.5L854.5 173.5M822.5 173.5H854.5" stroke="black"/>
<path d="M423.5 129H365L306.5 189V315H365M423.5 129V255L365 315M423.5 129L365 189V315" stroke="black"/>
<path d="M752.5 128H694L635.5 188V314H694M752.5 128V254L694 314M752.5 128L694 188V314" stroke="black"/>
<path d="M208 85V271M208 271L122.5 356.5M208 271H235.5" stroke="black"/>
<path d="M908.5 85V271M908.5 271L823 356.5M908.5 271H936" stroke="black"/>
<path d="M236 85.5L365.5 129.5" stroke="black" stroke-dasharray="4 4"/>
<path d="M153.5 174L306.5 188.5" stroke="black" stroke-dasharray="4 4"/>
<path d="M235 271L365 255" stroke="black" stroke-dasharray="4 4"/>
<path d="M153.5 356.5L307 314" stroke="black" stroke-dasharray="4 4"/>
<path d="M423.5 128.5L635 314" stroke="black" stroke-dasharray="4 4"/>
<path d="M694 128.5L366 314" stroke="black" stroke-dasharray="4 4"/>
<path d="M365.5 189L694.5 255" stroke="black" stroke-dasharray="4 4"/>
<path d="M636.5 188L423 254.5" stroke="black" stroke-dasharray="4 4"/>
<path d="M752 128.5L908 86" stroke="black" stroke-dasharray="4 4"/>
<path d="M694.5 188L823.5 173.5" stroke="black" stroke-dasharray="4 4"/>
<circle cx="530.5" cy="221.5" r="10.5" fill="black"/>
<circle cx="168.5" cy="124.5" r="10.5" fill="black"/>
<circle cx="897.5" cy="313.5" r="10.5" fill="black"/>
<path d="M170.032 129V118.85H168.562C168.086 119.956 167.372 120.054 165.916 120.096V121.412H168.1V129H170.032Z" fill="white"/>
<path d="M530.66 215.668C528.42 215.668 526.908 217.04 526.95 219.126H528.826C528.826 217.614 529.694 217.096 530.548 217.096C531.5 217.096 532.046 217.6 532.046 218.496C532.046 220.106 530.03 221.814 526.768 224.432V226H534.23V224.376H529.022C532.144 222.304 533.992 220.302 533.992 218.398C533.992 216.62 532.69 215.668 530.66 215.668Z" fill="white"/>
<path d="M897.386 317.726C896.126 317.726 895.482 316.83 895.328 315.808H893.508C893.62 317.67 895.006 319.182 897.33 319.182C899.458 319.182 901.25 318.146 901.25 316.088C901.25 315.066 900.676 314.072 899.612 313.624C900.396 313.19 900.984 312.392 900.984 311.398C900.984 309.48 899.234 308.668 897.54 308.668C895.188 308.668 893.816 309.858 893.592 311.916H895.426C895.524 310.852 896.252 310.124 897.428 310.124C898.268 310.124 899.038 310.6 899.038 311.482C899.038 312.434 898.128 312.966 896.672 312.966H896.336V314.478H896.742C898.184 314.478 899.29 314.954 899.29 316.144C899.29 317.096 898.45 317.726 897.386 317.726Z" fill="white"/>
<path d="M158 124L60 124" stroke="black"/>
<path d="M908 314L1006 314" stroke="black"/>
<path d="M530 211L530 41L637 41" stroke="black"/>
<path d="M1005.68 307.4V321.8H1009.28V320.568H1007.08V308.632H1009.28V307.4H1005.68ZM1014.34 313.918C1014.34 311.3 1015.78 309.872 1017.64 309.872C1019.49 309.872 1020.94 311.3 1020.94 313.918C1020.94 316.536 1019.49 317.978 1017.64 317.978C1015.78 317.978 1014.34 316.536 1014.34 313.918ZM1022.4 313.918C1022.4 310.852 1020.55 308.668 1017.64 308.668C1014.73 308.668 1012.88 310.852 1012.88 313.918C1012.88 316.984 1014.73 319.182 1017.64 319.182C1020.55 319.182 1022.4 316.984 1022.4 313.918ZM1023.89 308.85V314.87C1023.89 318.034 1025.12 319.182 1027.93 319.182C1030.89 319.182 1032.02 317.726 1032.02 314.758V308.85H1030.59V314.87C1030.59 316.872 1029.88 317.95 1027.93 317.95C1026.03 317.95 1025.31 317.026 1025.31 315.024V308.85H1023.89ZM1036.1 319H1037.53V310.082H1040.83V308.85H1032.8V310.082H1036.1V319ZM1041.76 308.85V319H1043.19V314.982H1044.94C1047.42 314.982 1049.15 314.436 1049.15 311.916C1049.15 309.41 1047.42 308.85 1044.94 308.85H1041.76ZM1045.05 310.054C1046.55 310.054 1047.7 310.264 1047.7 311.916C1047.7 313.582 1046.55 313.736 1045.05 313.736H1043.19V310.054H1045.05ZM1050.23 308.85V314.87C1050.23 318.034 1051.46 319.182 1054.27 319.182C1057.23 319.182 1058.36 317.726 1058.36 314.758V308.85H1056.93V314.87C1056.93 316.872 1056.22 317.95 1054.27 317.95C1052.37 317.95 1051.65 317.026 1051.65 315.024V308.85H1050.23ZM1062.44 319H1063.87V310.082H1067.17V308.85H1059.14V310.082H1062.44V319ZM1070.1 307.4V308.632H1072.29V320.568H1070.1V321.8H1073.7V307.4H1070.1Z" fill="black"/>
<path d="M7.296 116.4L7.296 130.8H10.896L10.896 129.568H8.704L8.704 117.632L10.896 117.632V116.4L7.296 116.4ZM16.4168 117.85H14.9888L14.9888 128H16.4168L16.4168 117.85ZM26.7126 128L26.7126 117.85H25.2846L25.2846 126.488L20.6506 117.85H18.5506L18.5506 128H19.9786L19.9786 119.334L24.6266 128H26.7126ZM28.8389 117.85L28.8389 128H30.2669L30.2669 123.982H32.0169C34.4949 123.982 36.2309 123.436 36.2309 120.916C36.2309 118.41 34.4949 117.85 32.0169 117.85H28.8389ZM32.1289 119.054C33.6269 119.054 34.7749 119.264 34.7749 120.916C34.7749 122.582 33.6269 122.736 32.1289 122.736H30.2669L30.2669 119.054H32.1289ZM37.3053 117.85L37.3053 123.87C37.3053 127.034 38.5373 128.182 41.3513 128.182C44.3053 128.182 45.4393 126.726 45.4393 123.758L45.4393 117.85H44.0113L44.0113 123.87C44.0113 125.872 43.2973 126.95 41.3513 126.95C39.4473 126.95 38.7333 126.026 38.7333 124.024L38.7333 117.85H37.3053ZM49.5195 128H50.9475L50.9475 119.082L54.2515 119.082V117.85L46.2155 117.85V119.082H49.5195L49.5195 128ZM57.1769 116.4L57.1769 117.632H59.3689L59.3689 129.568H57.1769V130.8H60.7769L60.7769 116.4L57.1769 116.4Z" fill="black"/>
</svg>
